<svg id="Layer_1" data-name="Layer 1" xmlns="http://www.w3.org/2000/svg" viewBox="0 0 300 150"><defs><style>.cls-1{fill:none;stroke:#be6229;stroke-linecap:round;stroke-linejoin:round;}.cls-2{fill:#be6229;}</style></defs><title>Artboard 1</title><polyline class="cls-1" points="207.06 10.91 207.28 10.79 207.08 12.99 208.82 11.99 207.09 14.95 210.27 13.11 207.1 16.59 211.48 14.05 207.11 18.27 212.73 15.02 207.11 19.6 213.72 15.79 207.13 21.6 215.2 16.94 207.13 23.29 216.45 17.91 207.14 24.66 217.47 18.7 207.15 26.35 218.72 19.67 207.16 27.58 219.63 20.38 207.17 29.29 220.9 21.36 207.18 30.58 221.85 22.11 207.19 31.95 222.87 22.89 207.2 34.06 224.43 24.11 207.21 36.09 225.94 25.27 207.22 38.34 227.61 26.57 207.23 39.86 228.73 27.44 207.24 41.28 229.78 28.26 207.25 43.04 231.09 29.27 207.26 44.68 232.3 30.22 207.27 46.85 233.91 31.47 207.28 48.46 235.11 32.39 207.29 50.49 236.61 33.56"/><polyline class="cls-1" points="19.03 51.92 19.53 51.63 19.03 53.77 22.73 51.63 19.03 55.65 25.98 51.63 19.03 57.06 28.44 51.63 19.03 59.1 31.97 51.63 19.03 61.01 35.27 51.63 19.03 62.82 38.42 51.63 19.03 64.26 40.9 51.63 19.03 66.54 44.86 51.63 19.03 68.83 48.82 51.63 19.03 70.12 51.05 51.63 19.03 71.88 54.1 51.63 19.03 73.87 57.55 51.63 19.03 75.61 60.57 51.63 19.03 77.74 64.25 51.63 19.03 79.24 66.86 51.63 19.03 81 69.91 51.63 19.03 83.29 73.88 51.63 19.03 84.99 76.82 51.62 19.03 86.76 79.88 51.62 19.03 88.69 83.23 51.62 19.03 90.41 86.21 51.62 19.03 92.13 89.19 51.62 19.03 93.34 91.29 51.62 19.39 94.6 93.83 51.62 21.55 94.6 96 51.62 24.3 94.6 98.74 51.62 27.35 94.6 101.8 51.62 30.12 94.6 104.57 51.62 33.39 94.6 107.83 51.62 37.12 94.6 111.56 51.62 39.38 94.6 113.83 51.62 42.55 94.6 117 51.62 46.2 94.6 120.64 51.62 48.7 94.6 123.15 51.62 51.72 94.6 126.17 51.62 54.49 94.6 128.94 51.62 57.53 94.6 131.98 51.62 61.47 94.6 135.92 51.62 63.64 94.6 138.09 51.62 67.41 94.6 141.86 51.61 69.92 94.6 144.36 51.61 72.88 94.59 147.33 51.61 75.34 94.59 149.78 51.61 77.6 94.59 152.05 51.61 79.96 94.59 154.41 51.61 83.71 94.59 158.16 51.61 86.3 94.59 160.74 51.61 89.28 94.59 163.73 51.61 91.77 94.59 166.21 51.61 95.7 94.59 170.14 51.61 97.89 94.59 172.34 51.61 101.02 94.59 175.46 51.61 104.66 94.59 179.11 51.61 107.63 94.59 182.07 51.61 111.31 94.59 185.75 51.61 115.06 94.59 189.51 51.61 118.43 94.59 192.87 51.61 120.58 94.59 195.03 51.6 124.56 94.59 199.01 51.6 126.6 94.59 201.04 51.6 129.53 94.59 203.98 51.6 132.89 94.59 237.46 34.22 135.34 94.58 238.5 35.03 137.89 94.58 239.59 35.87 140.97 94.58 240.9 36.89 143.02 94.58 241.78 37.57 146.78 94.58 243.38 38.81 149.88 94.58 244.7 39.84 152.79 94.58 245.94 40.8 156.47 94.58 247.51 42.02 160.43 94.58 249.2 43.33 163.73 94.58 250.61 44.42 167.36 94.58 252.16 45.62 170.41 94.58 253.46 46.63 173.18 94.58 254.64 47.55 176.37 94.58 256 48.6 180.03 94.58 257.56 49.81 183.52 94.58 259.05 50.97 185.72 94.58 259.99 51.7 187.94 94.58 260.94 52.43 190.61 94.58 262.08 53.31 194.41 94.58 263.7 54.57 196.8 94.58 264.72 55.36 198.83 94.58 265.59 56.03 201.98 94.58 266.93 57.07 205.61 94.57 268.48 58.27 207.52 95.15 269.72 59.24 207.53 96.97 271.08 60.29 207.54 98.66 272.33 61.26 207.55 100.44 273.65 62.28 207.56 101.95 274.77 63.15 207.57 103.73 276.09 64.17 207.59 105.75 277.59 65.34 207.6 107.82 279.13 66.53 207.62 110.06 280.79 67.81 207.63 112.34 282.48 69.13 207.64 114.27 283.91 70.23 207.66 116.27 285.4 71.39 207.66 117.73 286.48 72.22 207.68 119.55 281.8 76.75 207.69 121.31 273.66 83.22 207.7 123.33 264.35 90.63 207.71 125.23 255.57 97.6 207.72 127.13 246.79 104.57 207.74 129.38 236.42 112.82 207.75 131.53 226.48 120.72 207.76 132.81 220.58 125.41 207.77 134.34 213.51 131.03"/><path class="cls-2" d="M209.87,15.79l35.71,27.72,37.56,29.16-37.23,29.59-35.38,28.13-.21-35.48v-3H19V54.28H210.09l0-3-.2-35.48m-3-6.16.24,41.65H16V94.92H207.32l.24,41.65,40.22-32,40.22-32-40.58-31.5L206.83,9.63Z"/></svg>